<svg id="visual" viewBox="0 0 900 600" width="900" height="600" xmlns="http://www.w3.org/2000/svg" xmlns:xlink="http://www.w3.org/1999/xlink" version="1.1"><path d="M0 163L13.7 168C27.3 173 54.7 183 82 188C109.3 193 136.7 193 163.8 188C191 183 218 173 245.2 170C272.3 167 299.7 171 327 185C354.3 199 381.7 223 409 222C436.3 221 463.7 195 491 198C518.3 201 545.7 233 573 227C600.3 221 627.7 177 654.8 164C682 151 709 169 736.2 178C763.3 187 790.7 187 818 176C845.3 165 872.7 143 886.3 132L900 121L900 0L886.3 0C872.7 0 845.3 0 818 0C790.7 0 763.3 0 736.2 0C709 0 682 0 654.8 0C627.7 0 600.3 0 573 0C545.7 0 518.3 0 491 0C463.7 0 436.3 0 409 0C381.7 0 354.3 0 327 0C299.7 0 272.3 0 245.2 0C218 0 191 0 163.8 0C136.7 0 109.3 0 82 0C54.7 0 27.3 0 13.7 0L0 0Z" fill="#0066ff"></path><path d="M0 235L13.7 243C27.3 251 54.7 267 82 284C109.3 301 136.7 319 163.8 314C191 309 218 281 245.2 283C272.3 285 299.7 317 327 326C354.3 335 381.7 321 409 308C436.3 295 463.7 283 491 284C518.3 285 545.7 299 573 287C600.3 275 627.7 237 654.8 245C682 253 709 307 736.2 323C763.3 339 790.7 317 818 292C845.3 267 872.7 239 886.3 225L900 211L900 119L886.3 130C872.7 141 845.3 163 818 174C790.7 185 763.3 185 736.2 176C709 167 682 149 654.8 162C627.7 175 600.3 219 573 225C545.7 231 518.3 199 491 196C463.7 193 436.3 219 409 220C381.7 221 354.3 197 327 183C299.7 169 272.3 165 245.2 168C218 171 191 181 163.8 186C136.7 191 109.3 191 82 186C54.7 181 27.3 171 13.7 166L0 161Z" fill="#0b53e4"></path><path d="M0 427L13.7 421C27.3 415 54.7 403 82 412C109.3 421 136.7 451 163.8 457C191 463 218 445 245.2 450C272.3 455 299.7 483 327 481C354.3 479 381.7 447 409 435C436.3 423 463.7 431 491 429C518.3 427 545.7 415 573 414C600.3 413 627.7 423 654.8 437C682 451 709 469 736.2 471C763.3 473 790.7 459 818 452C845.3 445 872.7 445 886.3 445L900 445L900 209L886.3 223C872.7 237 845.3 265 818 290C790.7 315 763.3 337 736.2 321C709 305 682 251 654.8 243C627.7 235 600.3 273 573 285C545.7 297 518.3 283 491 282C463.7 281 436.3 293 409 306C381.7 319 354.3 333 327 324C299.7 315 272.3 283 245.2 281C218 279 191 307 163.8 312C136.7 317 109.3 299 82 282C54.7 265 27.3 249 13.7 241L0 233Z" fill="#0c40ca"></path><path d="M0 517L13.7 512C27.3 507 54.7 497 82 499C109.3 501 136.7 515 163.8 515C191 515 218 501 245.2 504C272.3 507 299.7 527 327 532C354.3 537 381.7 527 409 517C436.3 507 463.7 497 491 492C518.3 487 545.7 487 573 489C600.3 491 627.7 495 654.8 506C682 517 709 535 736.2 542C763.3 549 790.7 545 818 539C845.3 533 872.7 525 886.3 521L900 517L900 443L886.3 443C872.7 443 845.3 443 818 450C790.7 457 763.3 471 736.2 469C709 467 682 449 654.8 435C627.7 421 600.3 411 573 412C545.7 413 518.3 425 491 427C463.7 429 436.3 421 409 433C381.7 445 354.3 477 327 479C299.7 481 272.3 453 245.2 448C218 443 191 461 163.8 455C136.7 449 109.3 419 82 410C54.7 401 27.3 413 13.7 419L0 425Z" fill="#082eb1"></path><path d="M0 601L13.7 601C27.3 601 54.7 601 82 601C109.3 601 136.7 601 163.8 601C191 601 218 601 245.2 601C272.3 601 299.7 601 327 601C354.3 601 381.7 601 409 601C436.3 601 463.7 601 491 601C518.3 601 545.7 601 573 601C600.3 601 627.7 601 654.8 601C682 601 709 601 736.2 601C763.3 601 790.7 601 818 601C845.3 601 872.7 601 886.3 601L900 601L900 515L886.3 519C872.7 523 845.3 531 818 537C790.7 543 763.3 547 736.2 540C709 533 682 515 654.8 504C627.7 493 600.3 489 573 487C545.7 485 518.3 485 491 490C463.7 495 436.3 505 409 515C381.7 525 354.3 535 327 530C299.7 525 272.3 505 245.2 502C218 499 191 513 163.8 513C136.7 513 109.3 499 82 497C54.7 495 27.3 505 13.7 510L0 515Z" fill="#001b98"></path></svg>